<?xml version="1.0" encoding="iso-8859-1"?>
<!-- Generator: Adobe Illustrator 19.0.0, SVG Export Plug-In . SVG Version: 6.00 Build 0)  -->
<svg version="1.1" id="Layer_1" xmlns="http://www.w3.org/2000/svg" xmlns:xlink="http://www.w3.org/1999/xlink" x="0px" y="0px"
	 viewBox="0 0 512.001 512.001" style="enable-background:new 0 0 512.001 512.001;" xml:space="preserve">
<circle style="fill:#F2BE89;" cx="81.34" cy="199.9" r="42.01"/>
<circle style="opacity:0.15;fill:#EC8087;enable-background:new    ;" cx="81.34" cy="199.9" r="42.01"/>
<path style="opacity:0.07;enable-background:new    ;" d="M81.342,157.898c-4.797,0-9.401,0.815-13.695,2.296
	c-0.391,4.771-0.601,9.593-0.601,14.464v54.036c0,3.639,0.125,7.248,0.344,10.832c4.366,1.537,9.059,2.382,13.951,2.382
	c23.199,0,42.005-18.807,42.005-42.005C123.347,176.704,104.541,157.898,81.342,157.898z"/>
<circle style="fill:#F2BE89;" cx="430.66" cy="199.9" r="42.01"/>
<circle style="opacity:0.15;fill:#EC8087;enable-background:new    ;" cx="430.66" cy="199.9" r="42.01"/>
<path style="opacity:0.07;enable-background:new    ;" d="M430.659,157.898c4.797,0,9.401,0.815,13.695,2.296
	c0.391,4.771,0.6,9.593,0.6,14.464v54.036c0,3.639-0.125,7.248-0.344,10.832c-4.366,1.537-9.059,2.382-13.951,2.382
	c-23.199,0-42.005-18.807-42.005-42.005C388.654,176.704,407.46,157.898,430.659,157.898z"/>
<path style="fill:#E8E8E8;" d="M123.347,388.233c-76.996,12.31-87.89,81.167-88.988,110.515C34.088,505.992,39.903,512,47.153,512
	h76.194V388.233z"/>
<path style="opacity:0.08;enable-background:new    ;" d="M111.777,390.639C79.97,421.772,59.573,464.505,57.433,512h65.914V388.233
	C119.305,388.879,115.463,389.695,111.777,390.639z"/>
<path style="fill:#E8E8E8;" d="M388.654,388.233c76.995,12.31,87.89,81.167,88.988,110.515c0.271,7.245-5.544,13.253-12.794,13.253
	h-76.194V388.233z"/>
<path style="opacity:0.08;enable-background:new    ;" d="M400.223,390.639c31.806,31.133,52.204,73.866,54.343,121.361h-65.914
	V388.233C392.695,388.879,396.538,389.695,400.223,390.639z"/>
<path style="fill:#E8E8E8;" d="M437.438,512c0-100.205-81.232-181.438-181.438-181.438S74.562,411.795,74.562,512H437.438z"/>
<rect x="219.34" y="416.92" style="fill:#4EBF8C;" width="73.31" height="95.08"/>
<path style="fill:#8D6A59;" d="M256,330.563c-46.97,0-89.771,17.848-121.992,47.132c17.709,50.302,65.638,86.361,121.996,86.361
	c56.356,0,104.283-36.056,121.994-86.355C345.777,348.413,302.973,330.563,256,330.563z"/>
<path style="fill:#F2BE89;" d="M256,330.563c-38.399,0-74.003,11.939-103.326,32.292c12.347,45.494,53.927,78.957,103.33,78.957
	c49.401,0,90.98-33.461,103.329-78.953C330.009,342.503,294.401,330.563,256,330.563z"/>
<path style="opacity:0.1;enable-background:new    ;" d="M256,330.562c-46.324,0-88.584,17.37-120.648,45.939
	c30.347,31.854,73.178,51.706,120.648,51.706l0,0c47.469,0,90.301-19.852,120.648-51.706
	C344.585,347.932,302.324,330.562,256,330.562z"/>
<path style="fill:#F2BE89;" d="M256,0L256,0C159.539,0,81.342,78.197,81.342,174.658v54.036
	c0,96.461,78.197,174.658,174.658,174.658l0,0c96.461,0,174.658-78.197,174.658-174.658v-54.036C430.658,78.197,352.461,0,256,0z"/>
<g>
	<path style="fill:#394049;" d="M138.642,207.349c-4.142,0-7.5-3.357-7.5-7.5v-23.507c0-4.143,3.358-7.5,7.5-7.5s7.5,3.357,7.5,7.5
		v23.507C146.142,203.991,142.784,207.349,138.642,207.349z"/>
	<path style="fill:#394049;" d="M373.366,207.349c-4.143,0-7.5-3.357-7.5-7.5v-23.507c0-4.143,3.357-7.5,7.5-7.5s7.5,3.357,7.5,7.5
		v23.507C380.866,203.991,377.509,207.349,373.366,207.349z"/>
</g>
<g>
	<path style="fill:#EC8087;" d="M154.44,239.844h-31.598c-4.142,0-7.5-3.357-7.5-7.5s3.358-7.5,7.5-7.5h31.598
		c4.142,0,7.5,3.357,7.5,7.5C161.94,236.486,158.582,239.844,154.44,239.844z"/>
	<path style="fill:#EC8087;" d="M389.158,239.844H357.56c-4.143,0-7.5-3.357-7.5-7.5s3.357-7.5,7.5-7.5h31.598
		c4.143,0,7.5,3.357,7.5,7.5C396.658,236.486,393.3,239.844,389.158,239.844z"/>
</g>
<g>
	<path style="fill:#394049;" d="M256.004,239.844c-10.077,0-19.694-4.854-25.725-12.984c-2.467-3.326-1.771-8.023,1.556-10.491
		s8.025-1.771,10.492,1.556c3.262,4.398,8.248,6.92,13.677,6.92c5.43,0,10.415-2.522,13.678-6.92
		c2.467-3.327,7.166-4.024,10.491-1.556c3.327,2.468,4.023,7.165,1.556,10.491C275.698,234.99,266.081,239.844,256.004,239.844z"/>
	<rect x="81.34" y="111.17" style="fill:#394049;" width="349.32" height="65.17"/>
</g>
<path style="fill:#4EBF8C;" d="M319.488,0H192.512c-61.398,0-111.17,49.773-111.17,111.171H321.54v163.72
	c0,15.066,12.213,27.28,27.28,27.28l0,0c15.066,0,27.28-12.213,27.28-27.28v-33.5c0,15.066,12.214,27.28,27.28,27.28l0,0
	c15.066,0,27.28-12.214,27.28-27.28v-130.22C430.659,49.773,380.886,0,319.488,0z"/>
<path style="opacity:0.1;enable-background:new    ;" d="M138.642,78.831c-4.142,0-7.5,3.357-7.5,7.5v24.84h15v-24.84
	C146.142,82.188,142.784,78.831,138.642,78.831z M170.485,57.364c-4.142,0-7.5,3.357-7.5,7.5v46.307h15V64.864
	C177.985,60.722,174.627,57.364,170.485,57.364z M217.261,82.341c-4.142,0-7.5,3.357-7.5,7.5v21.33h15v-21.33
	C224.761,85.698,221.403,82.341,217.261,82.341z"/>
<g style="opacity:0.1;">
	<path d="M376.1,208.916c-4.143,0-7.5-3.357-7.5-7.5v-75.235c0-4.143,3.357-7.5,7.5-7.5s7.5,3.357,7.5,7.5v75.235
		C383.6,205.559,380.242,208.916,376.1,208.916z"/>
	<path d="M376.1,108.377c-4.143,0-7.5-3.357-7.5-7.5V77.575c0-4.143,3.357-7.5,7.5-7.5s7.5,3.357,7.5,7.5v23.302
		C383.6,105.02,380.242,108.377,376.1,108.377z"/>
</g>
<g>
	<path style="fill:#8D6A59;" d="M220.746,111.171c6.911,21.235,26.856,36.588,50.397,36.588s43.486-15.353,50.397-36.588
		C321.54,111.171,220.746,111.171,220.746,111.171z"/>
	<path style="fill:#8D6A59;" d="M154.441,130.194c-26.947,0-49.181,20.116-52.544,46.148h105.088
		C203.622,150.31,181.388,130.194,154.441,130.194z"/>
</g>
<g>
</g>
<g>
</g>
<g>
</g>
<g>
</g>
<g>
</g>
<g>
</g>
<g>
</g>
<g>
</g>
<g>
</g>
<g>
</g>
<g>
</g>
<g>
</g>
<g>
</g>
<g>
</g>
<g>
</g>
</svg>
