<?xml version="1.0"?>
<svg xmlns="http://www.w3.org/2000/svg" height="512px" viewBox="0 0 512 512.1688" width="512px"><g><path d="m492.460938 212.042969c-4.839844-1.046875-9.882813-.65625-14.507813 1.121093v-20.3125c.011719-8.320312-4.070313-16.117187-10.921875-20.84375-6.851562-4.726562-15.585938-5.78125-23.363281-2.816406-.296875-5.496094-2.363281-10.746094-5.890625-14.96875-6.570313-7.953125-17.289063-11.15625-27.148438-8.117187-9.859375 3.042969-16.914062 11.726562-17.863281 22-.171875-.058594-.324219-.152344-.496094-.203125-7.828125-2.652344-16.457031-1.371094-23.179687 3.441406-6.71875 4.8125-10.710938 12.570312-10.722656 20.835938v106.488281c0 .125.070312.238281.070312.355469 0 .121093-.070312.242187-.070312.367187.167968 6.410156-.71875 12.800781-2.621094 18.917969-.257813.820312-.933594 1.4375-1.773438 1.625-.871094.226562-1.796875-.019532-2.441406-.652344-4.230469-4.03125-7.992188-8.535156-11.203125-13.421875l-3.644531-5.511719c-12.695313-19.292968-24.695313-37.546875-39.320313-37.546875-9.5625-.246093-18.394531 5.097657-22.621093 13.679688-3.21875 8-1.183594 17.15625 5.117187 23.039062 6.417969 6.929688 17.273437 30.71875 32.265625 70.828125.929688 2.457032 1.585938 4.265625 1.929688 5.117188 8.929687 18.859375 21.449218 35.796875 36.855468 49.871094 1.46875 1.425781 2.796875 2.558593 3.992188 3.625 3.414062 3.003906 3.414062 3.003906 3.414062 6.246093v59.734375c.042969 5.003906 2.246094 9.746094 6.035156 13.011719 3.792969 3.269531 8.804688 4.742187 13.761719 4.046875h88.59375c10.914063.003906 19.765625-8.832031 19.78125-19.746094v-62.292968c.648438-1.292969 1.40625-2.527344 2.261719-3.695313 21.46875-19.625 23.285156-52.214844 23.363281-54.007813v-134.570312c.191407-12.070312-7.945312-22.691406-19.652343-25.644531zm-15.214844 201.644531c-2.886719 3.128906-5.246094 6.710938-6.980469 10.597656-.554687 1.140625-.84375 2.394532-.855469 3.660156v64.308594c-.003906 1.480469-1.203125 2.679688-2.6875 2.679688h-88.609375c-.90625.019531-1.808593-.082032-2.6875-.308594v-59.425781c.414063-7.535157-3.085937-14.753907-9.257812-19.097657-.992188-.851562-2.109375-1.832031-3.328125-3.027343-13.613282-12.472657-24.773438-27.386719-32.898438-43.964844-.3125-.792969-.929687-2.433594-1.789062-4.71875-11.09375-29.566406-25.132813-64.964844-35.738282-76.40625-1.023437-1.109375-2.65625-3.191406-2.023437-4.636719 1.582031-2.277344 4.21875-3.585937 6.988281-3.460937 5.496094.109375 19.210938 20.949219 25.0625 29.863281l3.703125 5.609375c3.9375 5.96875 8.539063 11.46875 13.722657 16.390625 4.835937 4.570312 11.65625 6.378906 18.121093 4.804688 6.464844-1.574219 11.691407-6.3125 13.886719-12.59375 2.542969-7.925782 3.753906-16.222657 3.578125-24.542969 0-.128907-.070313-.238281-.078125-.367188-.007812-.128906.078125-.230469.078125-.359375v-106.496094c-.019531-2.726562 1.285156-5.296874 3.496094-6.894531 2.667969-1.980469 6.242187-2.230469 9.160156-.644531s4.652344 4.71875 4.441406 8.035156v97.441406c0 4.714844 3.820313 8.535157 8.535157 8.535157 4.710937 0 8.53125-3.820313 8.53125-8.535157v-118.851562c-.171876-3.617188 1.847656-6.984375 5.121093-8.535156 3.480469-1.410156 7.46875-.4375 9.90625 2.417968 1.308594 1.527344 2.023438 3.46875 2.023438 5.476563v119.492187c0 4.714844 3.820312 8.535157 8.535156 8.535157 4.710937 0 8.53125-3.820313 8.53125-8.535157v-94.847656c.285156-.78125.453125-1.601562.496094-2.433594-.003907-2.195312.871093-4.304687 2.433593-5.851562 2.167969-2.238281 5.433594-3.027344 8.386719-2.03125 3.476563 1.046875 5.851563 4.253906 5.835938 7.882812v97.28125c0 4.714844 3.820312 8.535157 8.535156 8.535157 4.710937 0 8.53125-3.820313 8.53125-8.535157v-50.933593c.289063-.785157.453125-1.609375.496094-2.441407-.003907-2.199218.875-4.304687 2.441406-5.847656 2.042969-2.066406 5.023437-2.910156 7.847656-2.21875 3.886719 1.234375 6.460938 4.921875 6.28125 8.996094v134.160156c0 .265625-1.601562 27.027344-17.816406 41.839844zm0 0" data-original="#000000" class="active-path" data-old_color="#000000" fill="#FFFFFF"/><path d="m.0859375 372.703125c.0703125 1.371094 1.8867185 33.960937 23.2539065 53.476563.898437 1.195312 1.683594 2.46875 2.347656 3.804687v62.296875c.03125 10.898438 8.878906 19.71875 19.78125 19.71875h88.589844c4.953125.683594 9.957031-.800781 13.738281-4.066406s5.972656-8.003906 6.019531-13v-59.734375c0-3.242188 0-3.242188 3.414063-6.246094 1.191406-1.039063 2.558593-2.199219 3.992187-3.625 15.398438-14.074219 27.910156-31.007813 36.835938-49.863281.34375-.851563 1-2.625 1.929687-5.117188 14.992188-40.039062 25.847657-63.863281 32.265625-70.828125 6.300782-5.882812 8.335938-15.039062 5.121094-23.039062-4.226562-8.554688-13.027344-13.878907-22.5625-13.652344-14.628906 0-26.625 18.234375-39.324219 37.546875l-3.640625 5.519531c-3.214844 4.878907-6.972656 9.378907-11.207031 13.40625-.640625.632813-1.566406.882813-2.4375.65625-.839844-.183593-1.515625-.796875-1.777344-1.613281-1.898437-6.121094-2.785156-12.515625-2.617187-18.925781 0-.128907-.070313-.238281-.070313-.367188 0-.128906.070313-.230469.070313-.359375v-106.496094c-.011719-8.265624-4.003906-16.019531-10.726563-20.835937-6.71875-4.8125-15.347656-6.09375-23.179687-3.441406-.167969.050781-.324219.144531-.492188.207031-1.296875-13.328125-12.671875-23.390625-26.058594-23.042969-13.386718.347657-24.226562 10.988281-24.828124 24.363281-7.734376-3.136718-16.527344-2.195312-23.425782 2.511719-6.894531 4.703125-10.976562 12.546875-10.878906 20.894531v20.300782c-4.621094-1.78125-9.664062-2.167969-14.503906-1.109375-11.683594 2.960937-19.8046878 13.554687-19.6289065 25.601562zm17.0664065-135.015625c-.171875-4.085938 2.421875-7.777344 6.324218-8.996094 2.828126-.6875 5.808594.160156 7.851563 2.230469 1.558594 1.539063 2.4375 3.640625 2.429687 5.835937.035157.824219.191407 1.636719.460938 2.414063v50.960937c0 4.714844 3.824219 8.535157 8.535156 8.535157 4.710938 0 8.535156-3.820313 8.535156-8.535157v-97.28125c-.007812-3.648437 2.386719-6.871093 5.886719-7.917968 2.933594-.882813 6.117188-.085938 8.292969 2.074218 1.558594 1.546876 2.4375 3.648438 2.433594 5.84375.039062.828126.203125 1.640626.484375 2.417969v94.863281c0 4.714844 3.820312 8.535157 8.535156 8.535157 4.710937 0 8.53125-3.820313 8.53125-8.535157v-119.464843c0-2.03125.738281-3.992188 2.074219-5.523438 2.433594-2.828125 6.402344-3.785156 9.855468-2.371093 3.292969 1.535156 5.332032 4.90625 5.164063 8.535156v118.824218c0 4.714844 3.820313 8.535157 8.535156 8.535157 4.710938 0 8.53125-3.820313 8.53125-8.535157v-97.441406c-.207031-3.316406 1.523438-6.449218 4.441407-8.035156 2.921874-1.585938 6.492187-1.335938 9.160156.644531 2.214844 1.597657 3.515625 4.167969 3.5 6.894531v106.472657c0 .125.066406.238281.078125.355469.007812.121093-.078125.242187-.078125.367187-.175782 8.328125 1.03125 16.621094 3.574218 24.550781 2.171876 6.265625 7.375 11 13.816407 12.570313 6.484375 1.585937 13.332031-.21875 18.191406-4.796875 5.1875-4.917969 9.789063-10.414063 13.722656-16.382813l3.703125-5.605469c5.855469-8.890624 19.566406-29.730468 25.0625-29.867187 2.769532-.121094 5.410156 1.1875 6.988282 3.464844.632812 1.441406-.996094 3.523437-2.019532 4.632812-10.609375 11.445313-24.671875 46.839844-35.738281 76.40625-.855469 2.289063-1.476563 3.925781-1.792969 4.71875-8.125 16.582031-19.28125 31.492188-32.894531 43.964844-1.222656 1.195313-2.339844 2.160156-3.328125 3.03125-6.183594 4.347656-9.683594 11.578125-9.261719 19.121094v59.433593c-.875.21875-1.777343.316407-2.679687.300782h-88.589844c-.714844.003906-1.402344-.277344-1.914062-.777344-.507813-.503906-.796876-1.1875-.800782-1.902344v-64.308594c-.011718-1.265624-.304687-2.515624-.851562-3.660156-1.738282-3.890625-4.101563-7.46875-6.992188-10.597656-16.109375-14.769531-17.757812-41.402344-17.757812-41.402344zm0 0" data-original="#000000" class="active-path" data-old_color="#000000" fill="#FFFFFF"/><path d="m68.355469 477.867188c2.269531.023437 4.453125-.867188 6.058593-2.472657 1.605469-1.605469 2.496094-3.792969 2.472657-6.0625.125-2.886719-1.351563-5.609375-3.839844-7.082031-.4375-.335938-.925781-.59375-1.449219-.765625-.515625-.257813-1.0625-.429687-1.632812-.515625-2.78125-.519531-5.640625.339844-7.679688 2.304688-.769531.820312-1.375 1.773437-1.789062 2.816406-.4375 1.027344-.664063 2.128906-.675782 3.242187.011719 2.265625.898438 4.433594 2.476563 6.058594 1.601563 1.609375 3.785156 2.503906 6.058594 2.476563zm0 0" data-original="#000000" class="active-path" data-old_color="#000000" fill="#FFFFFF"/><path d="m102.488281 477.867188h8.53125c4.714844 0 8.535157-3.820313 8.535157-8.535157 0-4.710937-3.820313-8.53125-8.535157-8.53125h-8.53125c-4.714843 0-8.535156 3.820313-8.535156 8.53125 0 4.714844 3.820313 8.535157 8.535156 8.535157zm0 0" data-original="#000000" class="active-path" data-old_color="#000000" fill="#FFFFFF"/><path d="m405.847656 462.226562c-.4375-.339843-.925781-.597656-1.449218-.769531-.515626-.253906-1.066407-.429687-1.632813-.511719-2.78125-.519531-5.640625.339844-7.679687 2.304688-.769532.816406-1.375 1.773438-1.792969 2.816406-.4375 1.03125-.664063 2.144532-.671875 3.265625.011718 2.265625.898437 4.433594 2.472656 6.058594 2.441406 2.464844 6.128906 3.203125 9.332031 1.875 3.203125-1.332031 5.28125-4.464844 5.261719-7.933594.121094-2.886719-1.351562-5.609375-3.839844-7.082031zm0 0" data-original="#000000" class="active-path" data-old_color="#000000" fill="#FFFFFF"/><path d="m443.820312 460.800781h-8.53125c-4.714843 0-8.535156 3.820313-8.535156 8.53125 0 4.714844 3.820313 8.535157 8.535156 8.535157h8.53125c4.714844 0 8.535157-3.820313 8.535157-8.535157 0-4.710937-3.820313-8.53125-8.535157-8.53125zm0 0" data-original="#000000" class="active-path" data-old_color="#000000" fill="#FFFFFF"/><path d="m256.085938 102.398438c-4.710938 0-8.53125 3.820312-8.53125 8.535156v8.53125c0 4.714844 3.820312 8.535156 8.53125 8.535156 4.714843 0 8.535156-3.820312 8.535156-8.535156v-8.53125c0-4.714844-3.820313-8.535156-8.535156-8.535156zm0 0" data-original="#000000" class="active-path" data-old_color="#000000" fill="#FFFFFF"/><path d="m264.621094 8.535156c0-4.714844-3.820313-8.535156-8.535156-8.535156-4.710938 0-8.53125 3.820312-8.53125 8.535156v68.265625c0 4.710938 3.820312 8.53125 8.53125 8.53125 4.714843 0 8.535156-3.820312 8.535156-8.53125zm0 0" data-original="#000000" class="active-path" data-old_color="#000000" fill="#FFFFFF"/><path d="m321.230469 126.097656-4.265625 7.398438c-1.550782 2.640625-1.5625 5.910156-.039063 8.566406 1.523438 2.652344 4.355469 4.289062 7.417969 4.28125s5.886719-1.652344 7.398438-4.316406l4.269531-7.398438c1.546875-2.640625 1.5625-5.910156.035156-8.5625-1.523437-2.65625-4.355469-4.292968-7.417969-4.285156s-5.886718 1.652344-7.398437 4.316406zm0 0" data-original="#000000" class="active-path" data-old_color="#000000" fill="#FFFFFF"/><path d="m372.429688 37.425781-34.132813 59.113281c-1.546875 2.640626-1.5625 5.910157-.039063 8.5625 1.527344 2.65625 4.359376 4.292969 7.417969 4.285157 3.0625-.007813 5.886719-1.652344 7.402344-4.316407l34.132813-59.109374c1.546874-2.640626 1.5625-5.910157.039062-8.566407-1.527344-2.65625-4.359375-4.289062-7.421875-4.28125-3.058594.003907-5.882813 1.652344-7.398437 4.3125zm0 0" data-original="#000000" class="active-path" data-old_color="#000000" fill="#FFFFFF"/><path d="m179.289062 122.972656c-4.082031 2.359375-5.480468 7.578125-3.125 11.65625l4.265626 7.398438c2.375 4.046875 7.566406 5.421875 11.628906 3.074218 4.0625-2.34375 5.46875-7.527343 3.152344-11.605468l-4.265626-7.398438c-2.359374-4.082031-7.578124-5.480468-11.65625-3.125zm0 0" data-original="#000000" class="active-path" data-old_color="#000000" fill="#FFFFFF"/><path d="m128.085938 34.304688c-4.078126 2.355468-5.476563 7.574218-3.121094 11.65625l34.132812 59.109374c1.511719 2.664063 4.335938 4.308594 7.398438 4.316407 3.0625.007812 5.894531-1.628907 7.417968-4.285157 1.527344-2.652343 1.511719-5.921874-.035156-8.5625l-34.136718-59.113281c-2.355469-4.078125-7.574219-5.476562-11.65625-3.121093zm0 0" data-original="#000000" class="active-path" data-old_color="#000000" fill="#FFFFFF"/></g> </svg>
