<?xml version="1.0" encoding="iso-8859-1"?>
<!-- Generator: Adobe Illustrator 19.0.0, SVG Export Plug-In . SVG Version: 6.00 Build 0)  -->
<svg version="1.1" id="Capa_1" xmlns="http://www.w3.org/2000/svg" xmlns:xlink="http://www.w3.org/1999/xlink" x="0px" y="0px"
	 viewBox="0 0 468.293 468.293" style="enable-background:new 0 0 468.293 468.293;" xml:space="preserve">
<polygon style="fill:#FCD462;" points="468.293,254.096 392.742,334.455 312.258,284.254 289.155,269.831 181.635,202.771 
	252.316,123.348 295.024,149.198 307.887,157.003 "/>
<polygon style="fill:#F6C358;" points="77.6,204.353 301.494,334.45 392.732,334.45 181.625,202.75 "/>
<polygon style="fill:#FCD462;" points="301.518,334.455 219.785,429.05 101.463,359.118 101.463,359.056 90.349,352.5 0,299.115 
	77.612,204.332 124.753,231.743 150.353,246.603 "/>
<path style="fill:#27A2DB;" d="M201.97,95.438c0,31.036-56.195,133.463-56.195,133.463S89.58,126.473,89.58,95.438
	s25.159-56.195,56.195-56.195S201.97,64.402,201.97,95.438z"/>
<circle style="fill:#EBF0F3;" cx="145.776" cy="95.438" r="28.098"/>
<g>
</g>
<g>
</g>
<g>
</g>
<g>
</g>
<g>
</g>
<g>
</g>
<g>
</g>
<g>
</g>
<g>
</g>
<g>
</g>
<g>
</g>
<g>
</g>
<g>
</g>
<g>
</g>
<g>
</g>
</svg>
