<?xml version="1.0" encoding="iso-8859-1"?>
<!-- Generator: Adobe Illustrator 19.0.0, SVG Export Plug-In . SVG Version: 6.00 Build 0)  -->
<svg version="1.1" id="Layer_1" xmlns="http://www.w3.org/2000/svg" xmlns:xlink="http://www.w3.org/1999/xlink" x="0px" y="0px"
	 viewBox="0 0 512.001 512.001" style="enable-background:new 0 0 512.001 512.001;" xml:space="preserve">
<path style="fill:#F2ECBF;" d="M511.762,235.434c-1.677-8.712-9.4-14.943-18.271-14.74H194.183c-4.872,0-8.827,3.954-8.827,8.827
	V256h-31.334V114.775h16.859c8.941,0.291,16.762-5.958,18.447-14.74c1.606-9.612-4.881-18.712-14.493-20.327
	c-1.042-0.177-2.101-0.256-3.16-0.238h-17.653V35.337h4.855c4.872,0,8.827-3.954,8.827-8.827V8.857c0-4.872-3.954-8.827-8.827-8.827
	H8.827C3.954,0.031,0,3.985,0,8.857V26.51c0,4.872,3.954,8.827,8.827,8.827h12.798v211.837c0,4.872,3.954,8.827,8.827,8.827h4.855
	c0,129.75,135.664,81.469,107.772,245.73c-0.777,4.81,2.489,9.347,7.3,10.124c0.503,0.079,1.015,0.124,1.527,0.115h256.94
	c4.872-0.018,8.818-3.981,8.8-8.853c0-1.368-0.327-2.719-0.944-3.945c-19.33-39.19-19.507-77.409-19.507-124.719l2.295-0.53
	c57.284-15.799,98.769-62.58,98.769-117.922h-3.972c9.753,0.035,17.68-7.838,17.715-17.591
	C512.009,237.411,511.929,236.414,511.762,235.434z"/>
<path style="fill:#949493;" d="M189.329,97.122c0,9.753-7.9,17.653-17.653,17.653h-17.653V79.469h17.653
	C181.429,79.469,189.329,87.369,189.329,97.122z"/>
<path style="fill:#EFCE4A;" d="M408.844,511.969H247.143c26.48-44.133,26.48-79.439,26.48-132.398l1.677-5.649
	c13.831,3.787,28.112,5.693,42.456,5.649h35.306c7.229-0.026,14.449-0.494,21.625-1.412l22.419-4.678
	c0,47.84,0,86.235,19.507,125.778c2.145,4.378,0.335,9.665-4.043,11.81C411.413,511.633,410.142,511.942,408.844,511.969z"/>
<path style="fill:#F7E6A1;" d="M8.827,0.031h150.051c4.872,0,8.827,3.954,8.827,8.827V26.51c0,4.872-3.954,8.827-8.827,8.827H8.827
	C3.954,35.337,0,31.382,0,26.51V8.857C0,3.976,3.954,0.031,8.827,0.031z"/>
<path style="fill:#E4C05C;" d="M275.299,373.922l-1.677,5.649c0,52.959,0,88.265-26.48,132.398h-95.326
	c-4.872,0.062-8.879-3.84-8.941-8.712c-0.009-0.512,0.035-1.024,0.115-1.527C170.97,337.469,35.306,385.75,35.306,256H176.53
	C176.53,311.342,218.015,358.123,275.299,373.922z"/>
<path style="fill:#6B5B4B;" d="M511.762,241.259c-1.677,8.712-9.4,14.943-18.271,14.74H185.357v-26.48
	c0-4.872,3.954-8.827,8.827-8.827h300.102c9.753-0.035,17.68,7.838,17.715,17.591C512.009,239.273,511.929,240.271,511.762,241.259z
	"/>
<g>
</g>
<g>
</g>
<g>
</g>
<g>
</g>
<g>
</g>
<g>
</g>
<g>
</g>
<g>
</g>
<g>
</g>
<g>
</g>
<g>
</g>
<g>
</g>
<g>
</g>
<g>
</g>
<g>
</g>
</svg>
